<?xml version="1.0" encoding="UTF-8" standalone="no"?>
<!-- Generator: Adobe Illustrator 19.0.0, SVG Export Plug-In . SVG Version: 6.00 Build 0)  -->

<svg
   xmlns:dc="http://purl.org/dc/elements/1.1/"
   xmlns:cc="http://creativecommons.org/ns#"
   xmlns:rdf="http://www.w3.org/1999/02/22-rdf-syntax-ns#"
   xmlns:svg="http://www.w3.org/2000/svg"
   xmlns="http://www.w3.org/2000/svg"
   xmlns:sodipodi="http://sodipodi.sourceforge.net/DTD/sodipodi-0.dtd"
   xmlns:inkscape="http://www.inkscape.org/namespaces/inkscape"
   version="1.1"
   id="Layer_1"
   x="0px"
   y="0px"
   viewBox="0 0 410.61 410.61"
   style="enable-background:new 0 0 410.61 410.61;"
   xml:space="preserve"
   inkscape:version="0.91 r13725"
   sodipodi:docname="bus.svg"
   inkscape:export-filename="C:\Users\dcastillo\Documents\GitHub\BusTracker\public\images\icons\Bus.png"
   inkscape:export-xdpi="8.9866304"
   inkscape:export-ydpi="8.9866304"><metadata
     id="metadata69"><rdf:RDF><cc:Work
         rdf:about=""><dc:format>image/svg+xml</dc:format><dc:type
           rdf:resource="http://purl.org/dc/dcmitype/StillImage" /></cc:Work></rdf:RDF></metadata><defs
     id="defs67" /><sodipodi:namedview
     pagecolor="#ffffff"
     bordercolor="#666666"
     borderopacity="1"
     objecttolerance="10"
     gridtolerance="10"
     guidetolerance="10"
     inkscape:pageopacity="0"
     inkscape:pageshadow="2"
     inkscape:window-width="1920"
     inkscape:window-height="1018"
     id="namedview65"
     showgrid="false"
     inkscape:zoom="0.57475465"
     inkscape:cx="154.36095"
     inkscape:cy="343.87756"
     inkscape:window-x="1352"
     inkscape:window-y="-8"
     inkscape:window-maximized="1"
     inkscape:current-layer="Layer_1" /><path
     inkscape:connector-curvature="0"
     id="path5"
     d="m 358.12,56.665 0,32.02 -305.63,0 0,-32.02 c 0,-11.23 9.14,-20.36 20.36,-20.36 l 264.91,0 c 11.23,0 20.36,9.13 20.36,20.36 z"
     style="fill:#ff8080" /><rect
     id="rect7"
     height="148.31"
     width="305.63"
     style="fill:#76cdce"
     y="88.684998"
     x="52.490002" /><path
     inkscape:connector-curvature="0"
     id="path9"
     d="m 30.49,114.495 0,75.5 -19.841,0 C 4.768,189.995 0,185.227 0,179.346 l 0,-54.202 c 0,-5.881 4.768,-10.649 10.649,-10.649 0,0 19.841,0 19.841,0 z"
     style="fill:#aa0000" /><path
     inkscape:connector-curvature="0"
     id="path11"
     d="m 410.61,125.144 0,54.202 c 0,5.881 -4.768,10.649 -10.649,10.649 l -19.841,0 0,-75.5 19.841,0 c 5.881,0 10.649,4.768 10.649,10.649 z"
     style="fill:#aa0000" /><rect
     id="rect13"
     height="28.5"
     width="29"
     style="fill:#ffaaaa"
     y="261.17499"
     x="329.12" /><rect
     id="rect15"
     height="28.5"
     width="29"
     style="fill:#ffaaaa"
     y="261.17499"
     x="52.490002" /><path
     inkscape:connector-curvature="0"
     id="path17"
     d="m 329.12,261.175 0,28.5 -60.72,0 c 0,-7.87 3.19,-15 8.35,-20.15 5.16,-5.16 12.28,-8.35 20.15,-8.35 l 32.22,0 z"
     style="fill:#ffffff" /><path
     inkscape:connector-curvature="0"
     id="path19"
     d="m 142.22,289.675 -60.73,0 0,-28.5 32.23,0 c 15.74,0 28.5,12.76 28.5,28.5 z"
     style="fill:#ffffff" /><path
     inkscape:connector-curvature="0"
     id="path21"
     d="m 264.48,350.035 0,4.53 c 0,11 -8.92,19.92 -19.92,19.92 l -64.8,0 c -11.01,0 -19.92,-8.92 -19.92,-19.92 l 0,-4.53 104.64,0 z"
     style="fill:#4d4d4d" /><path
     inkscape:connector-curvature="0"
     id="path23"
     d="m 365.7,350.035 0,37.37 c 0,4.92 -3.99,8.9 -8.9,8.9 l -34.1,0 c -4.92,0 -8.9,-3.98 -8.9,-8.9 l 0,-37.37 51.9,0 z"
     style="fill:#666666" /><path
     inkscape:connector-curvature="0"
     id="path25"
     d="m 96.81,350.035 0,37.37 c 0,4.92 -3.98,8.9 -8.89,8.9 l -34.1,0 c -4.92,0 -8.9,-3.98 -8.9,-8.9 l 0,-37.37 51.89,0 z"
     style="fill:#666666" /><path
     inkscape:connector-curvature="0"
     id="path27"
     d="m 395.977,334.105 0,0 c 0,8.798 -7.132,15.93 -15.93,15.93 l -56.406,0 -53.794,0 -114.131,0 -68.747,0 -56.406,0 c -8.798,0 -15.93,-7.132 -15.93,-15.93 l 0,0 c 0,-8.798 7.132,-15.93 15.93,-15.93 l 349.483,0 c 8.799,0 15.931,7.132 15.931,15.93 z"
     style="fill:#cccccc" /><path
     inkscape:connector-curvature="0"
     id="path29"
     d="m 380.12,189.995 0,128.18 -349.63,0 0,-128.18 0,-75.5 0,-57.83 c 0,-23.39 18.97,-42.36 42.36,-42.36 l 264.91,0 c 23.4,0 42.36,18.97 42.36,42.36 l 0,57.83 0,75.5 z m -22,99.68 0,-28.5 -29,0 -32.22,0 c -7.87,0 -14.99,3.19 -20.15,8.35 -5.16,5.15 -8.35,12.28 -8.35,20.15 l 60.72,0 29,0 z m 0,-52.68 0,-148.31 0,-32.02 c 0,-11.23 -9.13,-20.36 -20.36,-20.36 l -264.91,0 c -11.22,0 -20.36,9.13 -20.36,20.36 l 0,32.02 0,148.31 305.63,0 z m -276.63,52.68 60.73,0 c 0,-15.74 -12.76,-28.5 -28.5,-28.5 l -32.23,0 -29,0 0,28.5 29,0 z"
     style="fill:#800000" /><polygon
     id="polygon31"
     points="280.66,236.995 132.36,88.685 358.12,88.685 358.12,236.995 "
     style="fill:#96e0de" /><path
     inkscape:connector-curvature="0"
     id="path33"
     d="m 358.12,56.665 0,32.02 -225.76,0 -52.38,-52.38 257.78,0 c 11.23,0 20.36,9.13 20.36,20.36 z"
     style="fill:#ffaaaa" /><g
     id="g35" /><g
     id="g37" /><g
     id="g39" /><g
     id="g41" /><g
     id="g43" /><g
     id="g45" /><g
     id="g47" /><g
     id="g49" /><g
     id="g51" /><g
     id="g53" /><g
     id="g55" /><g
     id="g57" /><g
     id="g59" /><g
     id="g61" /><g
     id="g63" /></svg>