<?xml version="1.0" encoding="UTF-8" standalone="no"?>
<!-- Generator: Adobe Illustrator 19.0.0, SVG Export Plug-In . SVG Version: 6.00 Build 0)  -->

<svg
   xmlns:dc="http://purl.org/dc/elements/1.1/"
   xmlns:cc="http://creativecommons.org/ns#"
   xmlns:rdf="http://www.w3.org/1999/02/22-rdf-syntax-ns#"
   xmlns:svg="http://www.w3.org/2000/svg"
   xmlns="http://www.w3.org/2000/svg"
   xmlns:sodipodi="http://sodipodi.sourceforge.net/DTD/sodipodi-0.dtd"
   xmlns:inkscape="http://www.inkscape.org/namespaces/inkscape"
   version="1.1"
   id="Capa_1"
   x="0px"
   y="0px"
   viewBox="0 0 504 504"
   style="enable-background:new 0 0 504 504;"
   xml:space="preserve"
   inkscape:version="0.91 r13725"
   sodipodi:docname="scooter.svg"
   inkscape:export-filename="C:\Users\dcastillo\Documents\GitHub\BusTracker\public\images\icons\Motocicleta.png"
   inkscape:export-xdpi="8.6282425"
   inkscape:export-ydpi="8.6282425"><metadata
     id="metadata127"><rdf:RDF><cc:Work
         rdf:about=""><dc:format>image/svg+xml</dc:format><dc:type
           rdf:resource="http://purl.org/dc/dcmitype/StillImage" /></cc:Work></rdf:RDF></metadata><defs
     id="defs125" /><sodipodi:namedview
     pagecolor="#ffffff"
     bordercolor="#666666"
     borderopacity="1"
     objecttolerance="10"
     gridtolerance="10"
     guidetolerance="10"
     inkscape:pageopacity="0"
     inkscape:pageshadow="2"
     inkscape:window-width="760"
     inkscape:window-height="480"
     id="namedview123"
     showgrid="false"
     inkscape:zoom="0.46825397"
     inkscape:cx="252"
     inkscape:cy="252"
     inkscape:window-x="2087"
     inkscape:window-y="269"
     inkscape:window-maximized="0"
     inkscape:current-layer="Capa_1" /><g
     id="g3"><g
       id="g5"><polygon
         style="fill:#E7001E;"
         points="200,265.833 224.702,141.26 264,209.833 260.552,225.833 255.793,249.833   "
         id="polygon7" /></g><g
       id="g9"><path
         style="fill:#8A8895;"
         d="M408,249.833c-13.683,0-24.691,11.45-23.966,25.291c0.68,12.978,12.328,22.709,25.324,22.709H416    c4.418,0,8-3.582,8-8v-32c0-4.418-3.582-8-8-8H408z"
         id="path11" /></g><g
       id="g13"><path
         style="fill:#5C546A;"
         d="M448,353.833c-30.928,0-56,25.072-56,56c0,30.928,25.072,56,56,56s56-25.072,56-56    C504,378.905,478.928,353.833,448,353.833z M448,441.833c-17.673,0-32-14.327-32-32c0-17.673,14.327-32,32-32s32,14.327,32,32    C480,427.506,465.673,441.833,448,441.833z"
         id="path15" /></g><g
       id="g17"><g
         id="g19"><path
           style="fill:#8A8895;"
           d="M448,417.833c-2.047,0-4.094-0.781-5.656-2.344l-72-72c-3.125-3.125-3.125-8.188,0-11.313     s8.188-3.125,11.313,0l72,72c3.125,3.125,3.125,8.188,0,11.313C452.094,417.052,450.047,417.833,448,417.833z"
           id="path21" /></g></g><g
       id="g23"><path
         style="fill:#E7001E;"
         d="M296,409.833L296,409.833c-26.51,0-48-21.49-48-48v-48H144v96h128L296,409.833z"
         id="path25" /></g><g
       id="g27"><g
         id="g29"><path
           style="fill:#E7001E;"
           d="M307.422,417.833H184c-4.422,0-8-3.578-8-8s3.578-8,8-8h123.422c5.25,0,10.164-2.578,13.156-6.891     l52.609-75.992c6.125-8.852,7.398-20.102,3.398-30.102l-19.992-49.992c-1.219-3.047-4.141-5.023-7.43-5.023H328     c-4.422,0-8-3.578-8-8s3.578-8,8-8h21.164c9.875,0,18.617,5.922,22.289,15.078l19.992,50c5.992,14.992,4.086,31.867-5.102,45.148     l-52.609,75.992C327.75,412.685,317.914,417.833,307.422,417.833z"
           id="path31" /></g></g><g
       id="g33"><path
         style="fill:#7E5C62;"
         d="M256,313.833H104c-8.837,0-16-7.163-16-16l0,0c0-8.837,7.163-16,16-16h152c8.837,0,16,7.163,16,16    v0C272,306.67,264.837,313.833,256,313.833z"
         id="path35" /></g><g
       id="g37"><path
         style="fill:#FFE0B1;"
         d="M152,281.833H16c-8.837,0-16-7.163-16-16v-80c0-8.837,7.163-16,16-16h136c8.837,0,16,7.163,16,16    v80C168,274.669,160.837,281.833,152,281.833z"
         id="path39" /></g><g
       id="g41"><g
         id="g43"><rect
           y="201.833"
           style="fill:#F7AA6B;"
           width="168"
           height="16"
           id="rect45" /></g></g><g
       id="g47"><g
         id="g49"><path
           style="fill:#FF4F19;"
           d="M368,417.833c-4.422,0-8-3.578-8-8c0-48.523,39.477-88,88-88c15.461,0,30.672,4.07,43.977,11.758     c3.828,2.211,5.141,7.109,2.93,10.93c-2.219,3.828-7.125,5.133-10.93,2.93c-10.883-6.289-23.32-9.617-35.977-9.617     c-39.703,0-72,32.297-72,72C376,414.255,372.422,417.833,368,417.833z"
           id="path51" /></g></g><g
       id="g53"><g
         id="g55"><path
           style="fill:#FF4F19;"
           d="M328,225.833h-56c-6.059,0-11.602-3.422-14.313-8.844l-32-64     c-3.949-7.906-0.746-17.516,7.156-21.469c7.898-3.953,17.508-0.758,21.469,7.156l27.574,55.156H328c8.836,0,16,7.164,16,16     S336.836,225.833,328,225.833z"
           id="path57" /></g></g><g
       id="g59"><g
         id="g61"><path
           style="fill:#5C546A;"
           d="M203.173,249.833h110.124c10.391,0,20.172,5.07,26.156,13.57     c5.988,8.492,7.473,19.406,3.977,29.195l-38.527,99.396c-2.473,6.313-8.512,10.172-14.902,10.172     c-1.941,0-3.914-0.359-5.832-1.109c-8.227-3.227-12.285-12.508-9.063-20.734l38.359-98.943L216,281.833c-8.836,0-16-7.164-16-16"
           id="path63" /></g></g><g
       id="g65"><path
         style="fill:#FFE0B1;"
         d="M295.299,74.143c-1.492-2.594-4.117-4.125-7.336-3.984c-59.297,3.078-59.297,7.195-59.297,14.672    c0,4.172,2.367,29.117,2.844,34.078c0.188,2.016,1.141,3.883,2.664,5.227c7.32,6.469,16.727,10.031,26.492,10.031    c22.055,0,40-17.945,40-40C300.667,87.135,298.815,80.206,295.299,74.143z"
         id="path67" /></g><g
       id="g69"><g
         id="g71"><path
           style="fill:#7E5C62;"
           d="M24,233.833L24,233.833c-4.418,0-8-3.582-8-8v-24h16v24C32,230.251,28.418,233.833,24,233.833z"
           id="path73" /></g></g><g
       id="g75"><g
         id="g77"><path
           style="fill:#7E5C62;"
           d="M136,233.833L136,233.833c-4.418,0-8-3.582-8-8v-24h16v24     C144,230.251,140.418,233.833,136,233.833z"
           id="path79" /></g></g><g
       id="g81"><path
         style="fill:#5C546A;"
         d="M160,409.833c0,17.673-14.327,32-32,32s-32-14.326-32-32H72c0,30.928,25.072,56,56,56    s56-25.071,56-56H160z"
         id="path83" /></g><g
       id="g85"><path
         style="fill:#FF4F19;"
         d="M129.472,314.507c-45.692,5.925-82.676,39.423-93.868,83.254    c-2.566,10.049,5.226,19.812,15.597,19.812h157.226c5.809-11.671,8.644-25.084,7.201-39.318    C211.401,336.556,171.036,309.118,129.472,314.507z"
         id="path87" /></g><g
       id="g89"><path
         style="fill:#E7001E;"
         d="M310.198,68.136c-12.288-23.369-39.148-35.318-65.691-27.66    c-18.92,5.459-33.78,21.237-38.281,40.407c-3.404,14.494-1.233,28.991,6.165,41.581c1.383,2.354,4.023,3.703,6.753,3.703l23.547,0    c4.04,0,7.785-2.12,9.863-5.585l18.31-30.527c1.447-2.412,4.053-3.888,6.866-3.888h21.547c4.352,0,8.297-2.234,10.555-5.969    C312.073,76.479,312.214,71.972,310.198,68.136z"
         id="path91" /></g></g><g
     id="g93" /><g
     id="g95" /><g
     id="g97" /><g
     id="g99" /><g
     id="g101" /><g
     id="g103" /><g
     id="g105" /><g
     id="g107" /><g
     id="g109" /><g
     id="g111" /><g
     id="g113" /><g
     id="g115" /><g
     id="g117" /><g
     id="g119" /><g
     id="g121" /></svg>